<svg xmlns="http://www.w3.org/2000/svg" viewBox="0 0 220 170" role="img" aria-label="CyberShark brand mark">
  <defs>
    <linearGradient id="body" x1="0%" y1="10%" x2="100%" y2="100%">
      <stop offset="0%" stop-color="#91fbff"/>
      <stop offset="55%" stop-color="#27ceff"/>
      <stop offset="100%" stop-color="#0f5a8d"/>
    </linearGradient>
    <linearGradient id="accent" x1="0%" y1="0%" x2="100%" y2="100%">
      <stop offset="0%" stop-color="#ff58b4"/>
      <stop offset="100%" stop-color="#9a46ff"/>
    </linearGradient>
  </defs>
  <path d="M16 88C34 42 86 14 145 16C181 17 204 34 211 59C195 56 175 60 160 73C143 87 116 100 77 104L16 88Z" fill="url(#body)" stroke="#0d9fff" stroke-width="8" stroke-linejoin="round"/>
  <path d="M116 14L149 49L100 50Z" fill="#04131f" stroke="#0d9fff" stroke-width="7" stroke-linejoin="round"/>
  <path d="M101 111L135 102L121 134L145 154L108 144L88 165L88 136L65 119Z" fill="#04131f" stroke="#0d9fff" stroke-width="7" stroke-linejoin="round"/>
  <path d="M61 56L93 39L83 64L98 76L68 71Z" fill="#04131f"/>
  <path d="M46 91L98 101L69 126L29 113Z" fill="#050b12"/>
  <path d="M49 92L86 99L66 117L37 107Z" fill="#ffffff"/>
  <path d="M74 89L84 100L70 112L59 98Z" fill="#050b12"/>
  <circle cx="106" cy="60" r="7" fill="#ff304d"/>
  <path d="M91 31L126 25L155 27L138 37L106 39Z" fill="url(#accent)" opacity="0.75"/>
</svg>
