<svg xmlns="http://www.w3.org/2000/svg" viewBox="0 0 320 210" role="img" aria-label="CyberShark brand mark">
  <defs>
    <linearGradient id="body" x1="0%" y1="10%" x2="100%" y2="100%">
      <stop offset="0%" stop-color="#7ff5ff"/>
      <stop offset="55%" stop-color="#0db7ff"/>
      <stop offset="100%" stop-color="#0460ae"/>
    </linearGradient>
    <linearGradient id="stroke" x1="0%" y1="0%" x2="100%" y2="100%">
      <stop offset="0%" stop-color="#18d0ff"/>
      <stop offset="100%" stop-color="#0a7dff"/>
    </linearGradient>
    <linearGradient id="shadow" x1="0%" y1="0%" x2="100%" y2="100%">
      <stop offset="0%" stop-color="#04070d"/>
      <stop offset="100%" stop-color="#0c1422"/>
    </linearGradient>
  </defs>
  <path d="M20 110C56 40 128 14 225 20C263 22 291 36 308 62C276 58 247 64 219 82C183 106 136 124 74 129L20 110Z" fill="url(#shadow)" stroke="url(#stroke)" stroke-width="13" stroke-linejoin="round"/>
  <path d="M31 108C62 52 132 26 220 29C252 30 274 40 287 58C258 58 231 66 206 83C173 104 133 118 82 122L31 108Z" fill="url(#body)"/>
  <path d="M167 20L214 65L144 66Z" fill="#03121c" stroke="url(#stroke)" stroke-width="11" stroke-linejoin="round"/>
  <path d="M157 22L197 58L151 59Z" fill="#0d1621"/>
  <path d="M170 129L223 116L204 156L245 188L192 172L167 202L165 166L126 142Z" fill="#03121c" stroke="url(#stroke)" stroke-width="11" stroke-linejoin="round"/>
  <path d="M176 131L214 122L200 151L227 171L189 160L171 180L170 153L141 137Z" fill="#0c1625"/>
  <path d="M100 59L148 38L129 72L155 86L110 80Z" fill="#03111b"/>
  <path d="M70 112L145 126L105 160L46 142Z" fill="#050a12"/>
  <path d="M73 113L128 123L99 147L57 135Z" fill="#ffffff"/>
  <path d="M109 111L127 131L104 149L85 127Z" fill="#050a12"/>
  <path d="M82 93L112 91L127 98L112 105L85 104Z" fill="#03111b"/>
  <circle cx="163" cy="70" r="10" fill="#ff3557"/>
  <path d="M151 52L198 48L233 50L210 61L169 64Z" fill="#06111d"/>
</svg>
