<svg xmlns="http://www.w3.org/2000/svg" viewBox="0 0 160 160" role="img" aria-label="CyberShark brand mark">
  <defs>
    <linearGradient id="bg" x1="0%" y1="0%" x2="100%" y2="100%">
      <stop offset="0%" stop-color="#07111f"/>
      <stop offset="55%" stop-color="#121c40"/>
      <stop offset="100%" stop-color="#260f2f"/>
    </linearGradient>
    <linearGradient id="body" x1="0%" y1="10%" x2="100%" y2="100%">
      <stop offset="0%" stop-color="#91fbff"/>
      <stop offset="55%" stop-color="#27ceff"/>
      <stop offset="100%" stop-color="#0f5a8d"/>
    </linearGradient>
    <linearGradient id="accent" x1="0%" y1="0%" x2="100%" y2="100%">
      <stop offset="0%" stop-color="#ff58b4"/>
      <stop offset="100%" stop-color="#9a46ff"/>
    </linearGradient>
  </defs>
  <rect width="160" height="160" rx="36" fill="url(#bg)"/>
  <circle cx="128" cy="38" r="11" fill="#ff7a00"/>
  <path d="M16 82C26 46 61 25 101 28C126 30 141 42 147 58C134 57 122 62 113 72C101 85 82 96 56 99L16 82Z" fill="url(#body)" stroke="#a7ffff" stroke-width="4" stroke-linejoin="round"/>
  <path d="M68 20L92 47L57 49Z" fill="url(#accent)"/>
  <path d="M102 58L139 45L123 74L144 85L106 83Z" fill="url(#accent)"/>
  <circle cx="93" cy="55" r="8" fill="#ff405e"/>
  <circle cx="93" cy="55" r="16" fill="none" stroke="#ff405e" stroke-opacity="0.35" stroke-width="5"/>
  <path d="M34 84L69 93L51 113L24 101Z" fill="#07151d"/>
  <path d="M37 84L61 90L48 105L31 98Z" fill="#ffffff"/>
  <path d="M22 40L48 31L37 55Z" fill="#ff7a00" opacity="0.9"/>
</svg>
