<svg xmlns="http://www.w3.org/2000/svg" viewBox="0 0 128 128" role="img" aria-label="CyberShark favicon">
  <defs>
    <linearGradient id="bg" x1="0%" y1="0%" x2="100%" y2="100%">
      <stop offset="0%" stop-color="#07101b"/>
      <stop offset="100%" stop-color="#0d1730"/>
    </linearGradient>
    <linearGradient id="cyanFill" x1="0%" y1="0%" x2="100%" y2="100%">
      <stop offset="0%" stop-color="#73f4ff"/>
      <stop offset="60%" stop-color="#13bfff"/>
      <stop offset="100%" stop-color="#0058bf"/>
    </linearGradient>
  </defs>
  <rect width="128" height="128" rx="28" fill="url(#bg)"/>
  <path d="M14 73C26 45 53 23 90 24C103 24 114 28 122 37C108 37 95 42 82 52C69 61 54 69 33 73L14 73Z" fill="#040912" stroke="#0da8ff" stroke-width="5" stroke-linejoin="round"/>
  <path d="M22 70C33 47 57 31 88 31C98 31 107 34 114 40C102 42 91 47 80 55C69 64 55 69 37 71L22 70Z" fill="url(#cyanFill)"/>
  <path d="M60 22L81 39L98 41L88 48L64 46L49 35Z" fill="#05111a" stroke="#0da8ff" stroke-width="4" stroke-linejoin="round"/>
  <path d="M72 81L92 84L85 101L103 117L80 108L68 122L68 103L51 90Z" fill="#05111a" stroke="#0da8ff" stroke-width="4" stroke-linejoin="round"/>
  <path d="M39 74L66 78L50 93L29 88Z" fill="#ffffff"/>
  <path d="M42 74L56 76L48 84L38 81Z" fill="#05111a"/>
  <path d="M49 43L67 35L61 47L73 53L56 51Z" fill="#05111a"/>
  <circle cx="66" cy="49" r="5" fill="#ff3654"/>
  <path d="M59 31L76 30L89 31L81 36L66 38Z" fill="#05111a"/>
</svg>
