<svg xmlns="http://www.w3.org/2000/svg" viewBox="0 0 128 128" role="img" aria-label="CyberShark icon">
  <defs>
    <linearGradient id="bg" x1="0%" y1="0%" x2="100%" y2="100%">
      <stop offset="0%" stop-color="#07101f"/>
      <stop offset="60%" stop-color="#11183a"/>
      <stop offset="100%" stop-color="#220c2c"/>
    </linearGradient>
    <linearGradient id="body" x1="0%" y1="0%" x2="100%" y2="100%">
      <stop offset="0%" stop-color="#7cf7ff"/>
      <stop offset="58%" stop-color="#1ec8ff"/>
      <stop offset="100%" stop-color="#0e5475"/>
    </linearGradient>
    <linearGradient id="fin" x1="0%" y1="0%" x2="100%" y2="100%">
      <stop offset="0%" stop-color="#ff4ea7"/>
      <stop offset="100%" stop-color="#7b35ff"/>
    </linearGradient>
  </defs>
  <rect width="128" height="128" rx="28" fill="url(#bg)"/>
  <circle cx="100" cy="28" r="10" fill="#ff6a00" opacity="0.9"/>
  <path d="M12 66C22 39 50 27 82 28C101 29 111 39 116 51C107 50 98 54 92 61C84 72 70 80 50 82L12 66Z" fill="url(#body)" stroke="#9af8ff" stroke-width="3" stroke-linejoin="round"/>
  <path d="M57 22L76 42L47 44Z" fill="url(#fin)"/>
  <path d="M84 50L111 40L99 62L116 70L88 69Z" fill="url(#fin)"/>
  <circle cx="75" cy="48" r="6" fill="#ff3b57"/>
  <circle cx="75" cy="48" r="12" fill="none" stroke="#ff3b57" stroke-opacity="0.4" stroke-width="4"/>
  <path d="M30 67L56 74L43 89L22 81Z" fill="#06131d"/>
  <path d="M32 67L51 72L41 83L27 78Z" fill="#ffffff"/>
  <path d="M17 30L38 23L29 42Z" fill="#ff6a00" opacity="0.85"/>
</svg>
